<?xml version="1.0" encoding="UTF-8" standalone="no"?>
<svg
   width="1024"
   height="1024"
   version="1.1"
   id="svg45"
   sodipodi:docname="codeigniter-logo.svg"
   inkscape:version="1.3.1 (91b66b0783, 2023-11-16)"
   xmlns:inkscape="http://www.inkscape.org/namespaces/inkscape"
   xmlns:sodipodi="http://sodipodi.sourceforge.net/DTD/sodipodi-0.dtd"
   xmlns="http://www.w3.org/2000/svg"
   xmlns:svg="http://www.w3.org/2000/svg">
  <sodipodi:namedview
     id="namedview45"
     pagecolor="#ffffff"
     bordercolor="#000000"
     borderopacity="0.25"
     inkscape:showpageshadow="2"
     inkscape:pageopacity="0.0"
     inkscape:pagecheckerboard="0"
     inkscape:deskcolor="#d1d1d1"
     inkscape:zoom="0.35838713"
     inkscape:cx="475.74253"
     inkscape:cy="355.76054"
     inkscape:window-width="1366"
     inkscape:window-height="715"
     inkscape:window-x="-8"
     inkscape:window-y="-8"
     inkscape:window-maximized="1"
     inkscape:current-layer="svg45" />
  <path
     d="M512.135 51.3706C541.203 67.7245 568.243 86.1612 593.063 108.538C650.568 160.382 689.524 231.356 702.696 307.608C705.591 324.367 706.804 341.383 707.683 358.349L709.153 354.848C717.904 333.073 733.365 313.652 749.75 297.095C752.578 294.237 756.434 289.619 760.078 288.061C756.358 309.396 757.598 331.955 763.217 352.849C769.041 374.507 778.465 395.324 784.889 416.825C792.378 441.891 795.814 467.755 793.274 493.837C791.121 515.95 783.001 538.61 773.597 558.606C768.32 569.825 761.984 581.109 759.126 593.25C757.347 600.805 756.801 608.977 761.205 615.789C763.971 620.067 768.495 623.56 773.562 624.568L774.25 624.69L776.209 624.952C783.573 625.228 790.267 621.448 795.608 616.665C817.254 597.282 816.836 565.44 818.443 538.675C828.829 554.952 838.295 572.162 844.586 590.461C861.577 639.88 858.894 694.383 835.664 741.322C804.998 803.289 747.738 843.65 683.495 865.294C684.006 874.036 683.274 881.208 681.138 889.628C688.721 891.212 696.972 891.598 704.688 892.71C719.435 894.835 760.988 901.704 770.187 912.481C771.308 913.794 772.698 915.955 772.388 917.75C771.959 920.237 770.129 922.262 768.203 923.739C764.026 926.942 759.104 928.247 754.203 929.926C721.406 941.161 685.481 942.691 651.23 945.758L611.502 949.265L560.743 950.25L464.656 950.368C418.643 948.822 373.007 945.492 327.38 939.295C311.323 937.047 294.958 934.376 279.385 929.864C273.771 928.238 268.103 926.751 262.93 923.958C260.517 922.656 257.19 920.631 256.547 917.75C256.09 915.699 256.366 913.42 257.697 911.756C260.83 907.838 267.115 905.732 271.645 904.095C284.438 899.47 298.254 896.962 311.681 894.925L368.873 887.885C358.377 884.425 348.571 879.02 341.612 870.212C339.931 868.084 338.004 864.426 335.618 863.145C333.317 861.91 330.429 861.439 327.93 860.73L316.115 856.834C302.475 852.115 288.751 846.046 276.25 838.813C227.855 810.813 189.833 766.24 175.398 711.657C165.156 672.929 167.435 632.333 180.824 594.63C186.549 578.511 194.359 562.997 202.967 548.237C202.893 570.551 205.002 590.286 216.754 609.846C222.685 619.716 231.013 629.69 242.847 632.199C247.322 633.147 253.973 632.47 257.75 629.818C265.905 624.092 259.602 610.91 256.136 604.071L237.95 568.772C229.141 549.578 221.989 529.478 217.805 508.75C211.743 478.723 211.835 447.409 217.052 417.273C225.332 369.443 249.026 320.769 283.797 286.535C292.267 278.196 301.953 270.702 311.646 263.849C307.452 271.241 304.025 279.32 301.978 287.579C297.301 306.451 296.787 330.593 307.152 347.749C307.92 334.977 310.433 322.39 315.452 310.578C327.449 282.348 350.791 260.909 365.013 233.931C374.654 215.641 381.56 193.599 378.593 172.74C377.688 166.373 375.622 160.186 373.744 154.052L396.85 171.231C420.699 192.992 434.551 221.528 439.623 253.241C440.827 260.772 441.178 268.525 441.537 276.141C476.353 257.99 504.072 228.186 518.425 191.469C531.703 157.502 535.776 116.339 524.75 81.1176C521.533 70.8423 516.457 61.2098 512.135 51.3706Z"
     id="path2" />
  <path
     fill="#E33F20"
     d="M375.379 820.653C377.218 821.244 382.326 822.284 383.497 823.519L382.954 849.147C380.928 846.022 380.263 841.677 379.322 838.114C377.78 832.277 376.264 826.642 375.379 820.653Z"
     id="path3" />
  <path
     fill="#E6EDF0"
     d="M396.838 716.834C397.842 710.982 400.162 705.57 404.449 701.366C412.654 693.321 424.688 694.929 435.153 694.971L456.046 695.041L452.508 699.992L432.138 699.969C421.376 699.874 413.335 698.111 404.756 706.602C402.114 709.217 400.027 712.09 398.288 715.363C397.913 716.07 397.606 716.52 396.838 716.834Z"
     id="path4" />
  <path
     fill="#E6EDF0"
     d="M683.177 762.701L683.419 761.308C684.122 758.502 688.028 757.026 690.382 755.761C703.643 748.633 715.859 739.455 726.25 728.574C729.086 725.605 731.618 722.495 734.119 719.247C736.124 716.644 738.845 712.908 741.74 711.245C744.761 709.511 749.02 709.792 752.255 710.687C762.272 713.457 769.828 723.213 774.614 731.888L773.183 731.777C768.852 724.073 759.091 718.114 750.784 715.731C748.943 715.203 747.093 715.227 745.396 716.187C739.909 719.29 736.205 726.761 732.025 731.405C721.652 742.927 708.674 752.241 694.602 758.689C690.961 760.358 687.205 762.262 683.177 762.701Z"
     id="path5" />
  <path
     fill="#E6EDF0"
     d="M300.818 705.967C304.101 704.922 306.101 704.672 309.25 706.227C313.559 708.354 317.44 712.176 321.056 715.293L337.923 729.363C354.52 742.397 374.745 753.826 394.104 762.137C402.827 765.882 415.616 769.654 418.772 779.886C418.077 779.152 418.275 779.44 417.816 778.711C416.557 776.708 415.311 774.838 413.304 773.501C408.663 770.41 402.915 770.003 397.719 768.304C392.785 766.691 387.921 764.626 383.206 762.461C363.068 753.216 343.401 741.268 326.239 727.251C317.866 720.412 310.312 711.049 300.818 705.967Z"
     id="path6" />
  <path
     fill="#4C555B"
     d="M396.564 837.22C398.518 850.294 405.454 865.687 416 873.92L416.514 874.326C424.645 880.552 436.535 880.638 446.25 879.988C447.28 878.818 447.001 877.459 447.088 875.934C447.555 878.989 447.371 882.312 447.554 885.413C447.971 892.506 452.075 898.125 456.008 903.736L432.706 903.383C421.969 903.173 411.179 903.76 403.121 895.38C400.297 892.444 398.355 889.116 397.345 885.16C395.776 879.014 396.403 872.137 396.427 865.832L396.564 837.22Z"
     id="path7" />
  <path
     fill="#B11C18"
     d="M683.929 792.526L688.975 790.67C700.656 786.006 713.068 781.523 724.25 775.813C737.009 769.298 748.684 760.66 758.798 750.552C763.542 745.812 768.936 740.031 771.582 733.795C771.996 732.82 772.265 732.393 773.183 731.777L774.614 731.888C777.05 736.199 778.694 739.846 777.25 744.924C775.279 751.852 770.63 757.622 765.969 762.919C753.955 776.572 739.154 787.762 723.073 796.212C710.628 802.75 697.103 807.318 683.931 812.185L683.929 792.526Z"
     id="path8" />
  <path
     fill="#B11C18"
     d="M382.954 849.147L383.043 876.922L382.529 877.131C374.158 875.842 366.966 874.071 359.949 869.153C338.533 854.142 337.431 825.905 333.476 802.522C347.342 809.449 360.675 815.628 375.379 820.653C376.264 826.642 377.78 832.277 379.322 838.114C380.263 841.677 380.928 846.022 382.954 849.147Z"
     id="path9" />
  <path
     fill="#B11C18"
     d="M284.12 725.767C287.096 732.476 290.228 738.206 295.14 743.728C301.619 751.012 309.703 756.946 317.796 762.308C328.949 769.698 340.432 776.087 352.423 782.013C360.208 785.86 367.867 789.812 375.981 792.943C382.505 795.46 388.777 797.551 395.711 798.728C401.571 799.723 407.334 799.148 412.285 795.645C415.068 793.676 417.863 790.766 419.854 788L420.11 783.746C421.183 789.515 419.432 796.414 416.573 801.5C413.592 806.803 408.176 810.951 402.261 812.451L401.5 812.635C388.115 816.035 373.063 808.494 361.164 803.001L340.317 793.062C323.784 784.673 306.852 774.814 292.635 762.851C287.667 758.669 281.665 753.062 279.826 746.633C277.924 739.983 281.095 731.647 284.12 725.767Z"
     id="path10" />
  <path
     fill="#E33F20"
     d="M683.177 762.701C687.205 762.262 690.961 760.358 694.602 758.689C708.674 752.241 721.652 742.927 732.025 731.405C736.205 726.761 739.909 719.29 745.396 716.187C747.093 715.227 748.943 715.203 750.784 715.731C759.091 718.114 768.852 724.073 773.183 731.777C772.265 732.393 771.996 732.82 771.582 733.795C768.936 740.031 763.542 745.812 758.798 750.552C748.684 760.66 737.009 769.298 724.25 775.813C713.068 781.523 700.656 786.006 688.975 790.67L683.929 792.526L683.833 774.75C683.8 770.792 684.02 766.577 683.177 762.701Z"
     id="path11" />
  <path
     fill="#E6EDF0"
     d="M611.164 334.619L615.02 332.331C630.052 344.317 643.227 359.783 656.406 373.768L681.426 400.665C689.719 409.69 698.143 418.951 704.778 429.297C710.89 438.829 715.527 448.918 716.744 460.275C717.61 468.356 716.784 476.694 716.43 484.792L714.47 524.782L707.226 660.75L704.756 703.823C704.195 713.387 703.423 722.9 703.501 732.488L695.614 738.396L709.52 479.766C710.064 467.862 709.912 455.306 705.435 444.063C700.839 432.519 692.331 423.195 684.509 413.75C661.513 385.983 635.407 361.225 611.164 334.619Z"
     id="path12" />
  <path
     fill="#E33F20"
     d="M833.817 641.836L840.759 625.941C848.463 674.696 833.993 726.402 805.241 765.995C783.59 795.809 753.439 819.771 720.506 836.017C708.491 841.944 696 846.695 683.519 851.516L683.516 838.459C686.224 837.661 688.877 836.216 691.447 835.037C695.97 832.961 700.489 830.891 704.847 828.481C717.303 821.592 729.139 813.986 740.838 805.885C755.089 796.017 768.792 785.544 780.496 772.663C791.572 760.474 800.913 746.318 808.877 731.937C816.869 717.503 823.565 702.522 828.115 686.636C830.361 678.795 837.121 647.804 833.817 641.836Z"
     id="path13" />
  <path
     fill="#ADACAC"
     d="M460.355 882.073L669.935 882.087C668.419 885.124 666.92 888.097 664.779 890.758C660.05 896.636 653.486 900.113 646 900.838C636.787 901.729 627.245 900.985 617.985 900.974L562.498 900.955L512.977 901.056C502.193 901.164 490.851 901.924 480.11 900.94C475.931 900.557 471.284 899.589 468.009 896.817C463.342 892.866 460.829 888.185 460.355 882.073Z"
     id="path14" />
  <path
     fill="#E33F20"
     d="M183.409 641.919C185.047 643.918 185.937 646.111 186.598 648.586C188.026 653.94 188.303 659.591 189.182 665.057C190.89 675.672 193.348 686.223 196.644 696.458C212.71 746.351 253.612 787.839 300.37 810.324C307.36 813.686 315.182 818.391 322.75 820.088L323.296 819.114C324.384 822.347 324.786 826.281 325.405 829.654L328.809 847.311C321.538 844.789 314.219 842.361 307.169 839.253C272.045 823.77 240.889 800.477 217.841 769.649C195.222 739.395 182.636 700.447 182.477 662.734C182.447 655.787 182.418 648.812 183.409 641.919Z"
     id="path15" />
  <path
     fill="#E33F20"
     d="M284.12 725.767C286.557 718.141 294.12 710.11 300.818 705.967C310.312 711.049 317.866 720.412 326.239 727.251C343.401 741.268 363.068 753.216 383.206 762.461C387.921 764.626 392.785 766.691 397.719 768.304C402.915 770.003 408.663 770.41 413.304 773.501C415.311 774.838 416.557 776.708 417.816 778.711C418.275 779.44 418.077 779.152 418.772 779.886L420.11 783.746L419.854 788C417.863 790.766 415.068 793.676 412.285 795.645C407.334 799.148 401.571 799.723 395.711 798.728C388.777 797.551 382.505 795.46 375.981 792.943C367.867 789.812 360.208 785.86 352.423 782.013C340.432 776.087 328.949 769.698 317.796 762.308C309.703 756.946 301.619 751.012 295.14 743.728C290.228 738.206 287.096 732.476 284.12 725.767Z"
     id="path16" />
  <path
     fill="#E33F20"
     d="M262.75 335.558C262.926 336.425 263.083 337.366 262.968 338.25C262.445 342.258 259.954 346.984 258.668 350.88L251.979 373.75C246.34 395.821 243.444 419.218 245.121 442C246.602 462.111 251.328 483.357 257.627 502.5L270.228 535.465C276.607 551.373 284.301 566.461 286.647 583.648C288.522 597.383 286.097 617.514 277.371 628.734C275.895 630.633 273.938 632.577 271.71 633.52C274.04 627.582 275.475 621.767 273.816 615.441C269.833 600.252 261.818 587.106 254.927 573.154C243.926 550.881 234.645 527.135 230.178 502.619C221.434 454.64 227.917 404.585 248.924 360.547C252.985 352.035 257.389 343.323 262.75 335.558Z"
     id="path17" />
  <path
     fill="#7B8183"
     d="M396.838 716.834C397.606 716.52 397.913 716.07 398.288 715.363C400.027 712.09 402.114 709.217 404.756 706.602C413.335 698.111 421.376 699.874 432.138 699.969L452.508 699.992C450.392 704.564 448.065 709.423 447.534 714.5C446.854 720.992 447.381 727.73 447.386 734.25L447.207 770.009L447.088 875.934C447.001 877.459 447.28 878.818 446.25 879.988C436.535 880.638 424.645 880.552 416.514 874.326L416 873.92C405.454 865.687 398.518 850.294 396.564 837.22L396.489 825.178C400.619 824.759 404.786 824.367 408.672 822.805C418.044 819.037 426.185 811.301 430.067 801.932C433.643 793.302 433.572 782.484 429.806 773.938C423.928 760.599 409.136 755.295 396.494 750.7L396.164 726.761C396.244 723.552 396.161 719.974 396.838 716.834Z"
     id="path18" />
  <path
     fill="#B11C18"
     d="M363.297 731.981C349.319 725.11 337.835 714.441 326.631 703.845C325.448 700.88 325.563 696.727 325.222 693.505L322.703 670.34L315.281 601.56C312.313 575.343 309.119 548.873 309.116 522.462C309.115 510.94 310.727 499.321 314.111 488.301C319.212 471.691 329.575 456.306 341.423 443.753C345.803 439.111 350.203 434.644 355.89 431.612L355.711 432.029C354.113 435.671 351.783 438.816 349.833 442.254C345.034 450.712 341.241 460.681 339.835 470.322C335.908 497.247 340.312 525.071 342.818 552L351.88 640.634L358.054 694.825C359.431 706.653 360.367 718.929 363.056 730.537L363.297 731.981Z"
     id="path19" />
  <path
     fill="#FB8426"
     d="M726.87 548.105L729.647 492.747C730.182 481.278 731.875 468.657 729.981 457.289C727.493 442.357 720.894 429.965 712.251 417.686L707.722 411.453C707.376 410.996 706.173 409.712 706.028 409.244C705.913 408.875 706.272 407.533 706.341 407.061L707.629 398.713C712.715 370.909 726.643 344.187 745.338 323.133C746.606 333.823 747.915 344.598 750.62 355.036C757.595 381.961 769.476 407.358 776.219 434.348C781.628 455.993 782.465 479.328 778.626 501.321C776.203 515.206 772.477 528.903 766.901 541.877C759.34 559.469 747.74 576.634 745.445 596C744.164 606.807 745.748 617.448 752.656 626.256C757.641 632.612 765.012 636.615 773 637.545C783.396 638.755 793.478 635.474 801.727 629.111C811.721 621.402 818.943 609.864 822.918 597.976C824.677 592.715 825.651 587.153 827.15 581.806C828.973 586.508 829.808 591.773 830.505 596.75C832.656 612.094 831.616 627.788 825.24 642.061C820.916 651.742 814.042 658.934 806.609 666.302C813.554 663.186 820.539 659.054 825.705 653.371C828.898 649.858 831.339 645.862 833.817 641.836C837.121 647.804 830.361 678.795 828.115 686.636C823.565 702.522 816.869 717.503 808.877 731.937C800.913 746.318 791.572 760.474 780.496 772.663C768.792 785.544 755.089 796.017 740.838 805.885C729.139 813.986 717.303 821.592 704.847 828.481C700.489 830.891 695.97 832.961 691.447 835.037C688.877 836.216 686.224 837.661 683.516 838.459L683.492 826.839C683.492 826.676 683.426 824.836 683.488 824.749C683.713 824.434 684.241 824.571 684.618 824.482C701.171 820.555 716.033 813.975 730.854 805.672C747.664 796.255 763.239 785.023 776.019 770.458C784.054 761.301 790.559 749.592 789.441 736.999C788.544 726.896 780.613 716.127 773.184 709.686C765.105 702.682 755.514 696.515 744.327 697.572C732.414 698.697 725.602 709.409 718.605 717.761L724.459 597.152L726.87 548.105Z"
     id="path20" />
  <path
     fill="#E6EDF0"
     d="M743.301 344.412C745.13 346.857 745.578 352.474 746.138 355.5L751.73 390.835L744.67 376.987C741.832 385.881 739.99 394.218 739.061 403.532L739.538 418.256C736.757 410.617 734.388 403.083 732.912 395.067C729.579 376.968 732.884 359.603 743.301 344.412Z"
     id="path21" />
  <path
     fill="#E33F20"
     d="M726.87 548.105C737.757 536.424 744.048 520.104 749.896 505.375C749.983 511.659 750.293 518.066 749.703 524.329C747.897 543.478 740.095 563.095 732.42 580.601C729.996 586.131 728.136 592.325 724.459 597.152L726.87 548.105Z"
     id="path22" />
  <path
     fill="#E6EDF0"
     d="M460.355 882.073L460.527 763.034L460.532 730.986C460.53 726.131 459.958 720.621 460.721 715.834C461.533 710.735 463.687 705.518 467.418 701.855C470.265 699.06 474.617 696.37 478.615 695.767C487.248 694.466 496.498 694.985 505.213 694.994L544.036 695.004L616.246 694.996L652.587 695.044C658.295 695.258 662.852 696.583 666.774 700.929C667.843 702.114 668.557 703.359 669.25 704.788L669.581 705.455C670.917 708.386 670.827 712.308 670.914 715.5L670.683 782.188L670.717 847.28L670.702 869.547C670.684 873.485 671.172 878.343 669.935 882.087L460.355 882.073Z"
     id="path23" />
  <path
     d="M561.713 740.61C562.574 740.797 563.326 741.025 564.127 741.406C566.671 742.615 569.296 745.48 571.412 747.429C582.148 757.313 589.979 767.621 594.25 781.729C595.571 786.093 595.809 790.651 596.218 795.173C597.313 792.399 598.399 789.639 599.207 786.765C599.79 784.693 599.998 782.468 600.75 780.454C601.165 779.341 601.126 779.075 602.25 778.579C606.614 782.027 609.003 788.082 610.524 793.288C614.356 806.401 613.763 821.553 607.037 833.663C601.889 842.932 593.972 847.016 584.141 849.862C579.412 850.961 573.321 850.751 568.484 850.229C556.453 848.931 544.568 843.983 536.968 834.25C531.602 827.378 530.418 819.159 531.45 810.75L531.549 809.863C532.908 798.7 540.435 788.915 543.206 778.091C543.981 775.061 543.733 769.408 546.25 767.424L546.968 767.656C551.011 769.122 553.301 775.493 555.005 779.083C560.554 770.314 564.241 761.104 563.451 750.517C563.206 747.235 562.338 743.841 561.713 740.61Z"
     id="path24" />
  <path
     fill="#E33F20"
     d="M539.105 802.23L539.479 802.874C540.085 804.008 539.943 805.438 539.973 806.686C540.032 809.123 539.936 811.654 540.523 814.032C541.696 818.786 545.346 822.297 548.469 825.859C548.172 818.892 549.416 812.56 554.333 807.219C556.428 804.944 559.185 802.801 562.114 801.754C571.456 807.976 577.879 818.574 587.951 823.637C590.975 825.157 593.76 825.594 597.068 826.042C599.636 824.548 601.909 822.929 603.62 820.425C605.256 818.033 606.253 815.36 608.101 813.082C608.033 817.944 607.176 822.948 605.465 827.5C603.102 833.785 597.782 838.776 591.687 841.412C580.366 846.308 566.803 845.921 555.453 841.331C547.601 838.156 540.829 832.353 537.637 824.365C534.823 817.325 536.089 808.985 539.105 802.23Z"
     id="path25" />
  <path
     fill="#FB8426"
     d="M539.105 802.23C541.1 795.422 543.944 788.625 546.512 782C547.034 780.653 548.047 776.966 549.107 776.102C550.878 779.763 552.266 783.326 553.396 787.241C564.674 775.869 568.038 765.209 568.046 749.436C580.553 761.35 590.932 775.146 591.457 793.132L591.515 805.595C597.528 799.603 600.178 793.137 603.673 785.563C606.901 794.375 608.836 803.633 608.101 813.082C606.253 815.36 605.256 818.033 603.62 820.425C601.909 822.929 599.636 824.548 597.068 826.042C593.76 825.594 590.975 825.157 587.951 823.637C577.879 818.574 571.456 807.976 562.114 801.754C559.185 802.801 556.428 804.944 554.333 807.219C549.416 812.56 548.172 818.892 548.469 825.859C545.346 822.297 541.696 818.786 540.523 814.032C539.936 811.654 540.032 809.123 539.973 806.686C539.943 805.438 540.085 804.008 539.479 802.874L539.105 802.23Z"
     id="path26" />
  <path
     fill="#FB8426"
     d="M445.984 288.866C455.972 283.51 465.83 277.74 474.814 270.798C502.392 249.492 525.676 217.5 535.764 184.077C543.033 159.996 546.744 131.788 543.604 106.693C542.584 98.5418 540.407 90.4248 538.711 82.3782C550.256 89.8277 561.002 98.4195 571.515 107.248C628.831 155.382 670.845 221.151 686.978 294.576C691.098 313.328 693.986 332.955 694.492 352.161L693.901 396.12L649.44 347.381L623.857 322.999C621.239 320.625 618.587 318.898 615.265 317.62C606.166 321.085 598.496 327.178 589.85 331.644C574.111 339.775 557.526 346.069 540.789 351.806C516.562 360.111 491.527 365.273 466.705 371.428C428.423 380.92 388.418 393.652 355.479 415.834C343.804 423.697 331.955 433.309 323.673 444.845C315.589 455.954 308.35 466.687 303.578 479.678C299.801 491.301 296.996 503.119 296.329 515.364C295.469 531.155 297.581 547.238 298.793 562.989L312.068 693.618C308.931 693.482 305.422 693.058 302.313 693.546C297.144 694.357 291.354 697.813 287.496 701.298C277.91 709.96 269.857 722.989 268.468 736C267.36 746.379 269.708 754.532 276.234 762.716C282.303 770.327 290.624 776.825 298.696 782.199C300.829 783.62 319.146 795.013 319.288 795.262C319.878 796.298 320.079 799.357 320.296 800.587L323.296 819.114L322.75 820.088C315.182 818.391 307.36 813.686 300.37 810.324C253.612 787.839 212.71 746.351 196.644 696.458C193.348 686.223 190.89 675.672 189.182 665.057C188.303 659.591 188.026 653.94 186.598 648.586C185.937 646.111 185.047 643.918 183.409 641.919L184.881 629.627C187.28 636.46 189.3 643.454 192.142 650.121C198.321 664.617 207.16 677.697 219.409 687.671C216.094 682.326 212.267 677.511 209.324 671.906C197.092 648.612 191.837 619.328 195.172 593.201C197.086 596.757 198.384 600.893 200.032 604.611C206.073 618.243 213.797 630.579 226.43 638.979C233.282 643.536 244.641 647.034 252.793 645.216L253.5 645.043C261.577 643.126 266.144 639.588 271.71 633.52C273.938 632.577 275.895 630.633 277.371 628.734C286.097 617.514 288.522 597.383 286.647 583.648C284.301 566.461 276.607 551.373 270.228 535.465L257.627 502.5C251.328 483.357 246.602 462.111 245.121 442C243.444 419.218 246.34 395.821 251.979 373.75L258.668 350.88C259.954 346.984 262.445 342.258 262.968 338.25C263.083 337.366 262.926 336.425 262.75 335.558C263.707 332.885 265.909 330.061 267.478 327.647C273.008 319.14 278.788 311.388 285.694 303.943L285.871 319.36C288.562 347.759 302.237 370.398 324.093 388.273C316.785 366.046 317.321 342.701 325.531 320.75C330.064 308.629 336.756 297.536 344.225 287.02C354.255 272.901 365.699 259.539 374.25 244.437C384.489 226.353 390.501 206.472 392.753 185.845C399.474 192.575 405.628 200.037 410.41 208.279C420.998 226.525 428.932 249.668 428.376 270.997C428.122 280.748 426.102 290.175 423.646 299.569C431.325 296.993 438.876 292.751 445.984 288.866Z"
     id="path27" />
  <path
     fill="#E6EDF0"
     d="M278.368 368.406L276.292 357.918L268.735 385.355C266.772 368.887 269.005 351.661 276.031 336.579C277.201 334.067 278.33 331.178 279.93 328.923C281.47 346.239 282.11 363.547 284.75 380.76L287.712 395.784C288.4 398.719 289.882 402.398 289.581 405.414C287.482 402.031 286.251 398.006 285.027 394.237C282.283 385.784 280.418 377.047 278.368 368.406Z"
     id="path28" />
  <path
     fill="#E6EDF0"
     d="M396.191 196.787C406.4 210.336 413.09 223.876 415.172 240.823C415.844 246.304 415.743 252.088 415.83 257.608C413.619 254.544 412.453 249.899 411.135 246.337L403.337 225.171C400.419 234.214 397.293 242.611 393.181 251.194C387.09 262.728 379.243 272.438 370.987 282.467C374.163 273.413 378.895 264.982 382.596 256.137C390.516 237.211 394.487 217.155 396.191 196.787Z"
     id="path29" />
  <path
     fill="#E33F20"
     d="M278.368 368.406C280.418 377.047 282.283 385.784 285.027 394.237C286.251 398.006 287.482 402.031 289.581 405.414C292.868 418.486 304.465 433.906 316.055 440.944C318.211 442.253 321.226 444.236 323.673 444.845C315.589 455.954 308.35 466.687 303.578 479.678C300.165 474.451 296.39 469.486 293.25 464.078C283.965 448.086 278.624 430.87 276.633 412.5C275.428 401.38 275.359 390.895 276.185 379.75C276.449 376.191 276.084 371.257 278.368 368.406Z"
     id="path30" />
  <defs
     id="defs31">
    <linearGradient
       id="gradient_0"
       gradientUnits="userSpaceOnUse"
       x1="444.4071"
       y1="264.78833"
       x2="676.79852"
       y2="229.57544">
      <stop
         offset="0"
         stop-color="#F14028"
         id="stop30" />
      <stop
         offset="1"
         stop-color="#FC962A"
         id="stop31" />
    </linearGradient>
  </defs>
  <path
     fill="url(#gradient_0)"
     d="M445.984 288.866C455.972 283.51 465.83 277.74 474.814 270.798C502.392 249.492 525.676 217.5 535.764 184.077C543.033 159.996 546.744 131.788 543.604 106.693C542.584 98.5418 540.407 90.4248 538.711 82.3782C550.256 89.8277 561.002 98.4195 571.515 107.248C628.831 155.382 670.845 221.151 686.978 294.576C691.098 313.328 693.986 332.955 694.492 352.161L693.901 396.12L649.44 347.381L623.857 322.999C625.73 315.221 628.199 307.574 629.147 299.601C631.35 281.078 628.92 262.403 624.055 244.5C615.267 212.157 599.238 184.324 578.473 158.25C576.641 162.052 575.87 166.919 574.574 170.988C571.7 180.015 568.42 188.945 564.257 197.465C565.384 176.014 564.279 154.604 561.274 133.363C561.116 134.47 560.978 135.313 560.608 136.37C559.333 140.011 560.201 145.791 559.964 149.75L558.211 170.032C555.902 194.023 551.21 217.64 542.086 240.025C538.348 249.195 533.786 257.897 529.459 266.79C535.206 262.683 541.083 258.396 546.133 253.446C557.452 242.349 566.201 228.865 573.708 214.992C576.999 208.909 579.721 201.562 583.812 196.07C581.762 207.974 579.183 219.205 574.914 230.554C566.014 254.218 549.539 277.633 528.727 292.32C508.748 306.419 485.13 315.364 460.75 317.546C455.895 317.98 450.499 318.448 445.678 317.634L444.74 317.462C440.001 317.743 432.611 316.947 428.21 315.326C425.485 314.323 422.724 312.489 421.551 309.717C420.109 306.31 422.291 302.691 423.646 299.569C431.325 296.993 438.876 292.751 445.984 288.866Z"
     id="path31" />
  <path
     fill="#E33F20"
     d="M445.984 288.866C448.105 289.227 450.112 289.413 452.264 289.44L452.417 290.19C452.864 292.31 453.839 294.248 454.031 296.426C454.152 297.797 454.658 299.234 454.885 300.625L455.05 301.287C455.269 302.281 455.183 301.857 455.153 303.004C455.118 304.368 455.036 303.6 455.409 304.687C455.87 306.034 455.559 307.33 455.524 308.723C455.476 310.613 455.859 312.185 456.494 313.955C456.809 314.832 456.798 315.411 456.749 316.325L457 316.755C453.427 316.711 447.946 315.928 444.74 317.462C440.001 317.743 432.611 316.947 428.21 315.326C425.485 314.323 422.724 312.489 421.551 309.717C420.109 306.31 422.291 302.691 423.646 299.569C431.325 296.993 438.876 292.751 445.984 288.866Z"
     id="path32" />
  <path
     fill="#E6EDF0"
     d="M561.274 133.363L556.647 110.185C570.131 126.77 585.832 141.477 598.907 158.5C605.938 167.655 612.082 177.643 617.933 187.592C641.785 228.154 658.227 276.133 653.155 323.748L650.836 339.941C650.513 342.139 650.478 345.428 649.44 347.381L623.857 322.999C625.73 315.221 628.199 307.574 629.147 299.601C631.35 281.078 628.92 262.403 624.055 244.5C615.267 212.157 599.238 184.324 578.473 158.25C576.641 162.052 575.87 166.919 574.574 170.988C571.7 180.015 568.42 188.945 564.257 197.465C565.384 176.014 564.279 154.604 561.274 133.363Z"
     id="path33" />
  <path
     fill="#E33F20"
     d="M611.164 334.619C635.407 361.225 661.513 385.983 684.509 413.75C692.331 423.195 700.839 432.519 705.435 444.063C709.912 455.306 710.064 467.862 709.52 479.766L695.614 738.396C692.179 741.485 687.612 743.489 683.526 745.546L683.575 723.737C683.602 714.879 684.424 705.667 680.017 697.603C676.298 690.8 669.915 685.63 662.414 683.584L661.5 683.346C657.481 682.255 653.35 682.489 649.219 682.484L632.821 682.463L582.36 682.405L473.72 682.119L426.217 681.823C414.07 681.981 403.465 683.909 394.702 693.029C381.525 706.745 383.047 725.984 383.442 743.587L363.297 731.981L363.056 730.537C360.367 718.929 359.431 706.653 358.054 694.825L351.88 640.634L342.818 552C340.312 525.071 335.908 497.247 339.835 470.322C341.241 460.681 345.034 450.712 349.833 442.254C351.783 438.816 354.113 435.671 355.711 432.029L355.89 431.612C365.256 422.863 377.198 416.499 388.708 411.078C424.32 394.307 463.984 385.253 502.033 375.789L540 365.969C564.842 358.304 588.685 347.63 611.164 334.619Z"
     id="path34" />
  <path
     d="M449.315 576.475C455.832 577.152 461.826 579.314 468.156 580.823C475.198 582.501 482.488 583.692 489.656 584.668C527.744 589.852 565.453 585.105 603.105 579.074C604.794 578.804 604.954 578.755 606.537 579.473C607.097 580.345 607.39 580.96 607.477 582.012C609.118 601.742 600.087 619.087 587.151 633.334C578.432 641.937 567.973 648.221 556.684 652.823C535.986 661.261 511.071 660.015 490.625 651.381C473.678 644.224 458.373 630.702 451.394 613.411C446.655 601.668 444.181 588.476 449.315 576.475Z"
     id="path35" />
  <path
     fill="#FB8426"
     d="M517.545 615.692C520.994 615.437 524.479 615.458 527.891 616.084C543.855 619.014 555.902 627.939 565.072 641.027C553.536 648.289 538.537 651.211 525.055 651.486C515.158 650.57 505.767 649.421 496.412 645.832C489.606 643.221 482.922 639.16 476.974 634.963C488.739 623.222 501.346 617.788 517.545 615.692Z"
     id="path36" />
  <path
     d="M623.552 413.698L623.959 413.64C639.292 412.209 659.168 418.103 671.327 427.548C687.629 440.212 698.215 457.197 700.608 477.829C702.827 496.957 697.098 515.881 685.161 530.896C672.268 547.113 653.282 554.967 633.198 557.305C617.165 559.581 597.93 552.569 585.251 543.118C569.986 531.738 559.352 514.657 556.791 495.703C554.111 475.865 559.64 456.561 571.898 440.796C585.116 423.794 602.748 416.352 623.552 413.698Z"
     id="path37" />
  <path
     fill="#E6EDF0"
     d="M623.552 421.674L623.988 421.606C638.732 419.567 656.195 426.067 667.75 435.054C682.345 446.406 691.184 462.157 693.254 480.553C694.986 495.936 689.609 512.709 679.93 524.726C668.926 538.386 652.529 547.098 635.121 548.935C619.478 550.672 602.808 546.439 590.091 537C576.765 527.108 567.064 512.21 564.712 495.678C562.241 478.312 566.598 460.774 577.064 446.736C588.845 430.936 604.622 424.464 623.552 421.674Z"
     id="path38" />
  <path
     d="M618.922 448.212C621.864 448.327 624.87 448.426 627.75 449.088C637.735 451.385 646.556 457.06 651.902 465.885C656.752 473.892 659.206 485.2 656.786 494.34C655.138 500.564 652.859 505.33 648.62 510.256C640.802 519.339 631.275 523.124 619.553 523.947C609.987 523.397 602.305 521.769 594.668 515.727C586.672 509.401 581.586 500.422 580.59 490.257C579.557 479.717 582.478 469.654 589.431 461.641C597.037 452.876 607.542 448.944 618.922 448.212Z"
     id="path39" />
  <path
     fill="#E6EDF0"
     d="M625.503 459.046C628.133 458.904 630.9 459.145 633.308 460.287C638.172 462.592 641.842 466.539 643.426 471.718C644.621 475.625 644.217 479.974 642.282 483.569C639.651 488.455 635.335 490.497 630.211 491.947C626.815 492.315 623.147 492.212 620.088 490.532C615.749 488.149 612.962 484.141 611.75 479.404C610.641 475.069 611.434 470.536 613.737 466.75C616.495 462.217 620.575 460.318 625.503 459.046Z"
     id="path40" />
  <path
     d="M420.879 409.707C439.348 409.66 456.836 415.794 470.919 427.823C484.694 439.589 495.067 457.588 496.503 475.851C498.118 496.398 491.906 515.871 478.401 531.498C465.241 546.726 445.834 556.19 425.769 557.59C407.444 557.598 390.317 552.386 375.898 540.869C360.959 528.936 351.484 511.187 349.46 492.189C347.318 472.081 353.81 452.144 366.573 436.562C380.615 419.417 399.313 411.878 420.879 409.707Z"
     id="path41" />
  <path
     fill="#E6EDF0"
     d="M421.268 418.206C425.681 417.824 430.761 418.162 435.069 419.189C444.874 421.526 454.555 425.285 462.519 431.6C476.905 443.008 486.62 458.492 488.711 476.939C490.668 494.2 485.023 511.392 474.261 524.851C462.328 539.773 445.337 547.802 426.596 549.951C421.563 550.056 415.901 549.956 410.978 548.85C399.374 546.243 390.052 542.215 380.82 534.517C367.96 523.794 358.784 507.085 357.553 490.281C356.246 472.426 361.755 454.263 373.659 440.75C386.094 426.635 402.766 419.523 421.268 418.206Z"
     id="path42" />
  <path
     d="M431.449 445.183C440.289 444.311 450.246 446.879 457.522 451.974C466.702 458.404 472.013 469.099 473.713 479.982C475.282 490.025 471.778 501.314 465.89 509.444C459.071 518.861 449.862 523.061 438.617 524.897C429.501 526.137 419.552 523.298 412.136 517.964C403.441 511.711 397.867 501.826 396.338 491.32C394.745 480.373 397.669 469.165 404.385 460.423C411.096 451.69 420.617 446.615 431.449 445.183Z"
     id="path43" />
  <path
     fill="#E6EDF0"
     d="M441.835 458.546C444.785 458.446 448.527 458.191 451.321 459.211C455.529 460.746 458.929 464.598 460.647 468.651C462.321 472.598 462.125 477.103 460.439 481C458.24 486.081 454.264 488.281 449.402 490.296C446.227 490.904 441.761 490.284 438.833 489.032C435.189 487.473 432.08 484.023 430.702 480.325C428.997 475.75 429.343 471.11 431.383 466.7C433.606 461.895 437.139 460.254 441.835 458.546Z"
     id="path44" />
  <path
     fill="#151C21"
     d="M436.866 451.179C438.006 451.145 437.487 451.019 438.436 451.5C433.701 455.143 430.195 456.875 426.867 462.207C423.581 467.471 422.338 474.909 423.933 480.969C425.543 487.087 429.597 492.069 435.13 495.037C440.562 497.95 448.032 497.5 453.75 495.487C458.837 493.696 462.588 490.474 464.974 485.618C465.834 483.866 466.349 481.983 467.239 480.235L467.454 482.191C468.109 492.388 464.193 501.338 457.63 508.834C453.382 512.781 447.917 516.256 442.096 517.266C433.227 518.805 423.378 517.566 415.989 512.129C408.736 506.793 404.659 498.874 403.438 490.047C402.14 480.671 404.203 471.355 410.088 463.815C416.961 455.011 426.262 452.333 436.866 451.179Z"
     id="path45" />
</svg>
