<?xml version="1.0" encoding="UTF-8" standalone="no"?>
<svg
   width="1024"
   height="1024"
   version="1.1"
   id="svg84"
   sodipodi:docname="programing-cute-logo (1).svg"
   inkscape:version="1.3.1 (91b66b0783, 2023-11-16)"
   xmlns:inkscape="http://www.inkscape.org/namespaces/inkscape"
   xmlns:sodipodi="http://sodipodi.sourceforge.net/DTD/sodipodi-0.dtd"
   xmlns="http://www.w3.org/2000/svg"
   xmlns:svg="http://www.w3.org/2000/svg">
  <defs
     id="defs84" />
  <sodipodi:namedview
     id="namedview84"
     pagecolor="#ffffff"
     bordercolor="#000000"
     borderopacity="0.25"
     inkscape:showpageshadow="2"
     inkscape:pageopacity="0.0"
     inkscape:pagecheckerboard="0"
     inkscape:deskcolor="#d1d1d1"
     inkscape:zoom="0.30866868"
     inkscape:cx="889.30305"
     inkscape:cy="600.968"
     inkscape:window-width="1366"
     inkscape:window-height="715"
     inkscape:window-x="-8"
     inkscape:window-y="-8"
     inkscape:window-maximized="1"
     inkscape:current-layer="svg84" />
  <path
     fill="#049488"
     d="M 169.304,270.355 C 216.736,182.239 304.479,115.489 399.662,86.9177 476.709,63.7901 562.949,65.922 639.374,90.4429 c 18.471,5.9264 37.351,13.1521 54.505,22.3071 66.436,35.456 121.89,88.817 159.952,153.812 l 15.988,29.961 7.103,15.62 c 0.2313,0.55131 28.879,84.309 28.879,84.309 l 2.18,13.734 c 9.77,70.368 -3.751,144.893 -33.932,208.902 l -13.544,25.662 c -2.705,4.634 -5.284,9.364 -8.517,13.658 -1.145,-1.211 -4.165,-3.661 -4.76,-5.035 -0.694,-1.603 0.695,-7.263 0.828,-9.349 0.203,-3.179 0.168,-6.565 -0.308,-9.714 l -0.129,-0.81 c -1.339,-8.941 -5.944,-17.463 -12.203,-23.943 -9.208,-9.535 -20.713,-14.935 -34.028,-15.127 -4.057,-16.698 -13.048,-34.714 -23.747,-48.133 l 3.109,-3.627 c 5.792,-7.212 9.784,-18.6 8.66,-27.868 -1.639,-13.509 -8.788,-23.375 -19.246,-31.631 4.286,-1.431 8.362,-2.942 12.1,-5.536 8.461,-5.87 14.011,-15.066 15.774,-25.155 1.522,-8.705 -1.281,-18.527 -6.415,-25.644 -6.634,-9.198 -16.313,-13.158 -27.108,-14.996 -0.09,-10.966 -1.397,-22.246 -2.99,-33.09 -3.23,-21.994 -8.495,-43.084 -17.595,-63.427 C 739.047,304.409 733.426,294.077 726.988,284 l -6.069,-9.047 c -0.195,-0.281 -1.596,-2.05 -1.607,-2.297 -0.026,-0.596 0.811,-2.395 1.032,-3.017 l 4.767,-12.382 c 10.854,-28.423 18.645,-60.082 7.926,-89.814 -6.418,-17.802 -18.323,-32.24 -35.6,-40.346 -16.84,-7.901 -33.892,-9.11 -51.489,-2.654 -28.955,10.623 -45.857,32.283 -58.499,59.527 l -26.62,-5.107 c 0.105,-4.702 -0.34,-9.369 -2.036,-13.793 -2.678,-6.99 -8.195,-12.668 -14.978,-15.753 -17.754,-8.075 -45.069,4.87 -59.06,15.768 -3.007,2.342 -5.779,4.718 -8.471,7.422 -1.409,1.416 -3.348,4.052 -4.971,5.072 -0.275,0.173 -2.139,0.16 -2.531,0.192 l -7.057,0.822 c -8.319,1.281 -16.323,3.328 -24.221,6.24 -5.193,-12.681 -12.229,-25.222 -21.223,-35.63 -14.018,-16.222 -33.924,-28.467 -55.781,-29.641 -17.399,-0.934 -33.946,4.435 -46.881,16.309 -31.522,28.935 -30.963,78.017 -17.214,115.416 1.997,5.432 4.1,10.968 6.547,16.213 0.371,0.795 3.262,5.934 3.182,6.383 -0.085,0.471 -1.593,2.258 -1.927,2.737 l -5.957,8.656 -8.024,13.223 c -19.367,34.411 -28.864,72.401 -30.367,111.688 -1.037,1.014 -4.573,1.049 -6.109,1.385 -4.083,0.892 -8.247,2.747 -11.75,5.006 -8.409,5.423 -14.14,14.828 -16.091,24.525 -1.789,8.893 1.007,19.121 6.085,26.484 5.955,8.633 13.441,13.875 23.747,15.767 l -4.213,2.621 c -8.032,5.583 -13.651,13.759 -15.224,23.468 -2.404,14.834 3.286,24.83 11.672,36.46 -7.456,10.748 -14.129,21.89 -19.208,33.979 -1.743,4.147 -3.625,8.309 -4.485,12.744 l -0.103,0.557 -6.43,1.345 c -12.939,3.169 -25.075,13.489 -31.751,24.761 -7.526,12.707 -8.049,26.359 -4.389,40.392 -2.169,1.507 -4.074,3.464 -6.018,5.25 l -1.842,-2.795 c -33.3,-52.713 -52.619,-113.728 -56.094,-175.979 -2.25,-40.308 1.94,-81.011 10.825,-120.328 z"
     id="path2"
     sodipodi:nodetypes="ccscccccccccsccccccccccccccccccccssscccccccccccccsccccccccccccccccccscccscc" />
  <path
     fill="#E9F7FA"
     d="M848.34 486.601C849.687 487.611 850.894 489.49 852.001 490.786C854.576 493.802 856.934 496.49 860.228 498.748L860.929 499.223C856.114 502.555 852.542 506.914 848.878 511.42L848.152 511.376C845.077 506.617 840.733 502.898 836.521 499.174C841.216 495.626 844.904 491.35 848.34 486.601Z"
     id="path3" />
  <path
     fill="#E9F7FA"
     d="M170.018 444.205C176.592 446.517 176.925 454.466 181.523 458.843C184.808 461.971 189.859 463.181 193.25 466.219C194.541 467.376 194.366 468.405 194.461 470C191.747 474.499 184.195 475.262 180.644 479.01C176.607 483.272 175.515 489.68 170.973 493.77C163.898 491.192 164.059 479.956 156.84 476.354C153.15 474.513 149.089 472.831 146.508 469.5C147.138 463.165 156.693 462.829 160.267 458.778C164.091 454.442 165.75 448.54 170.018 444.205Z"
     id="path4" />
  <path
     fill="#0A1330"
     d="M351.293 133.653C362.006 132.378 373.659 135.522 383.126 140.467C405.596 152.202 422.024 177.681 429.354 201.377C439.129 198.184 448.88 195.58 458.998 193.744C463.632 192.903 468.308 192.078 473.001 191.658C473.804 191.586 478.262 191.572 478.702 191.247C480.519 189.902 482.382 186.555 484.064 184.762C489.162 179.33 495.615 174.698 501.99 170.892C510.989 165.519 525.955 158.756 536.585 161.697C540.479 162.774 543.423 164.875 545.333 168.493C548.646 174.772 546.988 182.567 545.136 189.026L555.615 191.959C568.799 194.996 581.391 196.94 594.098 201.926C600.941 185.34 608.331 169.736 621.06 156.74C633.221 144.322 649.188 135.075 666.953 134.961C681.358 134.868 696.032 140.391 706.288 150.64C735.678 180.012 722.757 225.64 709.006 259.252C708.241 261.121 702.632 272.62 702.707 273.44C702.724 273.63 703.726 274.887 703.852 275.064L709.554 282.852C716.23 291.999 722.498 301.53 727.471 311.722C745.081 347.808 750.984 387.179 750.793 426.963C755.034 426.277 760.14 425.82 764.422 426.236C770.338 426.81 776.257 430.235 779.934 434.907C783.16 439.007 785.077 444.879 784.361 450.085C783.509 456.282 780.499 461.782 775.356 465.443C766.963 471.417 756.483 471.821 746.74 470.281L742.116 484.602L747.656 486.802C758.024 491.319 770.099 498.731 774.25 509.822C776.461 515.729 776.083 523.476 773.375 529.184C770.218 535.839 763.636 540.487 756.909 542.945C764.319 551.537 771.882 561.369 777.371 571.313C783.96 583.25 788.38 596.06 792.008 609.158C799.325 608.357 805.799 607.552 812.877 610.314C827.091 615.859 836.665 630.427 834.316 645.828C833.795 649.243 832.707 652.604 831.726 655.908C831.667 656.108 831.052 657.88 831.094 658.026C831.146 658.2 831.375 658.258 831.515 658.374C837.065 662.967 842.753 667.555 847.835 672.665C860.128 685.027 871.241 699.387 878.134 715.49C889.677 742.458 889.998 772.305 879.016 799.5C857.259 853.382 799.843 888.562 748.623 910.229C683.531 936.717 615.199 949.62 545.098 952.569C524.309 953.444 503.552 953.812 482.764 952.556C408.886 948.091 334.76 934.372 267.782 901.859C235.728 886.299 205.572 866.418 181.91 839.488C161.338 816.074 146.621 784.326 148.845 752.578C151.416 715.853 170.73 686.533 197.971 662.894C195.769 656.333 193.53 649.411 193.774 642.396C194.376 625.135 208.243 611.01 224.808 607.631C227.222 607.139 229.704 607.121 232.157 607.045C232.377 607.038 234.196 607.078 234.335 606.986C234.633 606.79 234.497 606.292 234.581 605.946C239.386 586.155 248.498 568.362 261.141 552.458C264.615 548.086 268.084 543.627 272.195 539.83L272.903 539.184C269.223 538.67 265.49 538.093 262.057 536.598C256.836 534.325 252.813 529.547 250.861 524.247C248.799 518.651 249.009 512.137 251.573 506.75C256.076 497.286 270.981 490.999 280.366 487.531L273.037 470.385L270.59 470.417C261.683 470.525 253.125 470.324 246.376 463.543C242.131 459.279 239.897 453.239 239.935 447.264C239.975 441.177 242.431 435.11 246.843 430.864C254.562 423.436 263.328 425.016 273.198 425.158C273.342 414.705 273.501 404.353 274.6 393.945C277.743 364.182 286.336 334.383 300.745 308.088C307.105 296.481 314.492 286.159 322.611 275.727L316.089 262.988C310.011 250.033 305.608 236.817 303.159 222.71C299.248 200.186 301.203 174.8 314.893 155.688C323.579 143.561 336.731 136.03 351.293 133.653Z"
     id="path13" />
  <path
     fill="#A9ADC6"
     d="M666.711 591.937C671.803 591.925 676.075 591.315 679.988 595.283C681.343 596.657 682.457 598.228 683.515 599.834L672.961 600.092L672.625 599.963C672.141 596.556 669.045 594.201 666.711 591.937Z"
     id="path14" />
  <path
     fill="#E9F7FA"
     d="M528.45 212.706C531.525 210.117 534.199 207.403 536.863 204.395C540.242 204.889 546.367 204.954 548.574 207.852C549.517 209.091 550.29 211.383 550.396 212.914C543.63 213.375 535.116 213.701 528.45 212.706Z"
     id="path15" />
  <path
     fill="#E9F7FA"
     d="M759.325 442.682C760.702 442.575 762.251 442.357 763.619 442.565C765.023 442.779 766.949 444.068 767.638 445.341C768.521 446.973 768.616 448.195 768.118 450C766.122 452.394 762.513 453.062 759.586 453.701C758.022 453.844 756.422 454.019 754.851 453.905C753.161 453.782 750.537 453.62 749.374 452.25L749.829 444.413C752.936 443.522 756.132 443.138 759.325 442.682Z"
     id="path16" />
  <path
     fill="#18F4C1"
     d="M729.125 507.452C730.589 505.365 732.597 501.557 734.654 500.216C743.05 502.644 753.582 506.151 757.983 514.455C758.576 515.574 758.936 516.831 759.302 518.038C755.324 515.863 751.412 513.746 747.116 512.25C741.251 510.208 735.097 509.112 729.125 507.452Z"
     id="path17" />
  <path
     fill="#F6599F"
     d="M261.516 440.022C266.195 439.748 269.663 440.858 273.992 442.404L274.003 454.616L269.125 454.997C266.77 455.113 263.907 455.38 261.588 454.955C259.672 454.604 258.041 452.431 257.104 450.862C256.248 449.428 255.384 447.376 255.913 445.718C256.887 442.665 258.812 441.487 261.516 440.022Z"
     id="path18" />
  <path
     fill="#24B96B"
     d="M794.661 655.872L785.883 648.812C787.264 645.62 788.63 642.404 789.691 639.089C790.89 635.344 791.514 627.918 793.75 625.01C796.46 623.404 800.193 623.669 803.26 623.621L794.661 655.872Z"
     id="path19" />
  <path
     fill="#24B96B"
     d="M729.125 507.452C735.097 509.112 741.251 510.208 747.116 512.25C751.412 513.746 755.324 515.863 759.302 518.038C759.254 518.695 759.224 519.359 759.054 520C758.392 522.51 756.311 524.874 754.09 526.138C753.528 526.458 751.389 527.722 750.809 527.715C750.191 527.708 748.4 526.775 747.754 526.511L735.639 520.993C731.127 519.078 726.551 517.286 721.81 516.031L729.125 507.452Z"
     id="path20" />
  <path
     fill="#A9ADC6"
     d="M477.395 817.631L546.842 817.528C545.954 819.211 545.407 821.048 544.797 822.846C544.532 823.039 544.313 823.324 544 823.425C543.37 823.628 541.509 823.429 540.772 823.43L531.05 823.444L479.87 823.517L477.395 817.631Z"
     id="path21" />
  <path
     fill="#55EC97"
     d="M288.279 501.435C291.444 502.863 295.58 510.422 297.777 513.544L275.118 522.479C274.174 522.685 273.282 522.72 272.321 522.67C269.472 522.524 268.027 521.506 266.13 519.463C265.475 517.392 265.397 515.991 266.303 513.971C269.362 507.151 281.915 503.833 288.279 501.435Z"
     id="path22" />
  <path
     fill="#24B96B"
     d="M281.954 717.675L304.128 733.7C302.681 739.735 300.541 750.511 294.691 753.695C293.193 754.51 291.526 754.497 289.951 753.951C286.16 752.636 281.833 749.409 278.819 746.773C282.675 743.483 284.831 739.2 285.944 734.306C286.896 730.122 286.613 725.434 284.19 721.791C283.307 720.463 282.634 719.115 281.954 717.675Z"
     id="path23" />
  <path
     fill="#24B96B"
     d="M645.489 566.234C661.42 560.828 676.172 554.533 690.164 545.037L711.62 529.385C714.068 532.81 715.058 540.298 715.721 544.458C709.701 545.97 704.104 549.582 698.386 551.998C683.324 558.362 666.784 564.35 650.545 566.586C648.559 566.859 647.377 566.927 645.489 566.234Z"
     id="path24" />
  <path
     fill="#E9F7FA"
     d="M388.43 238.379C412.672 222.272 443.898 211.864 472.736 208.162C472.613 211.59 472.541 214.045 474.667 216.896L475.04 217.377C471.909 218.495 468.392 218.774 465.12 219.319L450.961 221.876L412.883 230.907L399.725 235.141C396.689 236.257 391.663 238.901 388.43 238.379Z"
     id="path25" />
  <path
     fill="#F6599F"
     d="M379.711 224.338L356.002 241.488L355.688 241.122C354.351 239.303 353.499 236.467 352.684 234.356C349.295 225.583 346.106 214.392 347.755 204.963L347.891 204.25L348.671 200.75C350.361 195.634 353.917 192.537 358.483 190.076C356.213 195.823 355.006 199.824 357.726 205.834C360.064 211 363.556 214.95 368.026 218.394L368.611 218.862C371.662 221.264 375.975 223.262 379.711 224.338Z"
     id="path26" />
  <path
     fill="#F6A5C9"
     d="M358.483 190.076C362.53 188.707 366.425 189.214 370.25 191.034C381.208 196.246 386.892 207.543 390.597 218.486L379.711 224.338C375.975 223.262 371.662 221.264 368.611 218.862L368.026 218.394C363.556 214.95 360.064 211 357.726 205.834C355.006 199.824 356.213 195.823 358.483 190.076Z"
     id="path27" />
  <path
     fill="#E9F7FA"
     d="M327.297 168.846C331.414 161.136 339.328 154.141 347.75 151.559C357.112 148.688 366.723 150.316 375.202 154.9C388.228 161.943 397.398 173.528 404.898 186C408.71 192.338 412.248 198.981 414.634 206C413.709 207.357 412.529 207.542 411.034 208.164C406.196 200.636 402.492 192.012 396.915 185.056C387.117 172.836 373.142 160.32 356.898 158.741C348.695 157.944 338.846 160.428 332.418 165.635C330.873 166.78 329.176 168.437 327.297 168.846Z"
     id="path28" />
  <path
     fill="#E9F7FA"
     d="M614.083 207.991C612.704 207.6 611.286 207.402 610.332 206.25C610.691 202.222 613.73 197.095 615.519 193.5C623.896 176.669 637.589 159.176 656.058 153.071C665.063 150.094 674.968 150.406 683.464 154.757C694.043 160.175 701.079 169.329 704.677 180.557L703.895 180.134C701.321 178.659 699.145 175.147 696.965 173.047C686.111 162.593 674.421 157.807 659.301 161.297C642.931 165.075 630.689 179.271 622.306 192.951L614.083 207.991Z"
     id="path29" />
  <path
     fill="#24B96B"
     d="M332.418 165.635C333.537 168.723 331.183 175.219 331.005 178.798C330.386 191.231 331.987 203.296 336.881 214.793C336.926 213.142 336.593 210.013 337.308 208.608C337.375 222.451 341.534 235.224 347.831 247.422C345.559 250.669 341.622 253.723 338.734 256.504C337.246 257.937 335.536 260.021 333.744 260.98C323.634 241.483 315.687 215.734 318.829 193.609C320.013 185.273 322.203 175.76 327.297 168.846C329.176 168.437 330.873 166.78 332.418 165.635Z"
     id="path30" />
  <path
     fill="#FDFD90"
     d="M174.326 755.602C175.041 727.816 190.274 705.04 208.913 685.674L225.801 712.891C215.494 720.094 204.636 725.903 195.349 734.589L174.326 755.602Z"
     id="path31" />
  <path
     fill="#F6599F"
     d="M674.538 194.042L676.332 197.6C681.303 210.092 673.156 228.603 668.628 240.275L633.664 217.92C636.401 210.82 641.263 203.022 646.551 197.535C651.697 192.194 657.828 187.717 665.497 187.598C669.822 189.111 671.819 190.215 674.538 194.042Z"
     id="path32" />
  <path
     fill="#F6A5C9"
     d="M665.497 187.598C669.822 189.111 671.819 190.215 674.538 194.042L673.878 196.905C672.326 201.492 668.902 205.908 664.381 207.814C661.822 208.892 658.577 209.167 656 207.983C654.521 207.304 652.904 205.511 652.477 203.921C651.916 201.833 652.691 199.407 653.601 197.547C655.286 194.098 658.21 190.398 662.008 189.207C663.197 188.834 664.059 188.471 665.12 187.831L665.497 187.598Z"
     id="path33" />
  <path
     fill="#FDFD90"
     d="M804.899 713.079L822.468 682.386C827.973 686.433 832.841 691.66 837.205 696.894C848.879 710.897 857.872 727.735 860.755 745.866L861.562 755.653L851.868 745.371C838.317 732.36 821.838 721.182 804.899 713.079Z"
     id="path34" />
  <path
     fill="#A9ADC6"
     d="M326.751 829.998L320.623 818.046C332.492 817.155 462.084 817.428 464.003 818.307L467.899 829.082C467.6 829.376 467.392 829.813 467 829.964C466.042 830.333 462.715 829.962 461.52 829.962L439.706 829.956L326.751 829.998Z"
     id="path35" />
  <path
     fill="#A9ADC6"
     d="M556.132 829.121L560.081 817.687L701.121 817.766L694.827 829.973L602.919 829.918L570.468 829.823C566.371 829.799 559.868 830.622 556.132 829.121Z"
     id="path36" />
  <path
     fill="#24B96B"
     d="M253.709 601.986C254.837 607.843 255.657 613.905 257.328 619.636C267.812 655.596 293.742 684.623 324.165 705.453L325.571 706.358L325.535 726.242C305.592 712.874 286.325 698.212 272.25 678.453C261.677 663.609 253.418 644.24 252.071 625.928C251.479 617.879 252.398 609.91 253.709 601.986Z"
     id="path37" />
  <path
     fill="#55EC97"
     d="M332.418 165.635C338.846 160.428 348.695 157.944 356.898 158.741C373.142 160.32 387.117 172.836 396.915 185.056C402.492 192.012 406.196 200.636 411.034 208.164L399.943 213.473C396.496 206.559 393.143 199.414 388.134 193.467C382.005 186.193 374.259 180.68 364.5 180.052C358.144 179.644 352.417 181.507 347.61 185.708C340.73 191.72 337.921 199.734 337.308 208.608C336.593 210.013 336.926 213.142 336.881 214.793C331.987 203.296 330.386 191.231 331.005 178.798C331.183 175.219 333.537 168.723 332.418 165.635Z"
     id="path38" />
  <path
     fill="#24B96B"
     d="M786.871 710.103C785.708 712.598 783.385 715.033 781.672 717.179C772.032 729.26 759.168 742.111 745.511 749.506C740.792 752.062 732.989 755.113 727.723 753.156C726.169 752.578 724.462 750.535 723.862 749.011C720.039 739.313 741.24 718.763 747.422 711.64L759.438 696.431C767.543 685.232 774.972 673.456 780.674 660.844L788.657 665.491C786.574 667.987 785.098 671.245 783.603 674.124L776.378 687.785C771.759 696.162 766.233 703.857 761.987 712.494C760.923 714.658 758.917 718.401 759.168 720.863C759.303 722.188 760.45 723.284 761.5 723.953C766.899 724.206 775.821 718.531 780.062 715.25C782.2 713.596 784.269 710.857 786.871 710.103Z"
     id="path39" />
  <path
     fill="#55EC97"
     d="M803.26 623.621C808.435 625.092 812.504 626.647 815.377 631.544C820.056 639.521 817.584 649.305 815.16 657.632C809.713 676.343 799.417 695.199 786.871 710.103C784.269 710.857 782.2 713.596 780.062 715.25C775.821 718.531 766.899 724.206 761.5 723.953C760.45 723.284 759.303 722.188 759.168 720.863C758.917 718.401 760.923 714.658 761.987 712.494C766.233 703.857 771.759 696.162 776.378 687.785L783.603 674.124C785.098 671.245 786.574 667.987 788.657 665.491L798.852 671.848C801.345 673.311 803.053 674.087 805.886 673.37L806.314 672.25C804.978 665.793 799.032 660.546 794.661 655.872L803.26 623.621Z"
     id="path40" />
  <path
     fill="#24B96B"
     d="M772.567 600.03L778.514 618.95C778.846 620.161 779.899 622.696 779.858 623.826C779.818 624.937 778.628 627.159 778.187 628.346L769.497 649.405C756.766 676.569 738.694 700.657 714.5 718.544C709.721 722.078 704.818 725.756 699.441 728.323L699.452 705.291C702.714 704.508 705.806 703.55 708.75 701.901C715.737 697.99 721.983 691.876 727.542 686.184C741.659 671.731 753.486 653.844 761.216 635.184C765.974 623.7 769.236 611.967 772.567 600.03Z"
     id="path41" />
  <path
     fill="#55EC97"
     d="M645.489 566.234C647.377 566.927 648.559 566.859 650.545 566.586C666.784 564.35 683.324 558.362 698.386 551.998C704.104 549.582 709.701 545.97 715.721 544.458C717.407 556.95 718.476 569.735 717.291 582.333C715.595 600.382 709.004 618.957 699.504 634.345L699.49 611.354C699.476 607.483 699.895 603.143 698.977 599.388C697.694 594.14 695.025 589.312 691.215 585.479C686.463 580.698 680.726 577.388 674 576.445L673.192 576.319C666.831 575.401 659.809 576.02 653.341 576.044L614.835 576.222C609.842 576.294 604.849 576.838 599.861 576.75C601.124 575.639 604.037 575.738 605.722 575.443L624.085 571.941C631.148 570.388 638.678 568.648 645.489 566.234Z"
     id="path42" />
  <path
     fill="#E9F7FA"
     d="M344.219 599.796L346.878 596.378C348.992 594.226 352.673 591.799 355.75 591.57C366.239 590.788 377.355 591.538 387.892 591.568L452.516 591.682L666.711 591.937C669.045 594.201 672.141 596.556 672.625 599.963L344.219 599.796Z"
     id="path43" />
  <path
     fill="#4C5471"
     d="M467.899 829.082C468.321 831.526 469.836 833.581 471.784 835.082C473.221 836.189 545.085 836.482 551.598 835.658C553.405 833.882 555.383 831.612 556.132 829.121C559.868 830.622 566.371 829.799 570.468 829.823L602.919 829.918L694.827 829.973L690.151 839.005L558.702 839.01L482.96 838.536L378.939 838.861L347.356 838.865C342.162 838.864 336.518 839.307 331.373 838.677C329.562 835.875 328.135 833.033 326.751 829.998L439.706 829.956L461.52 829.962C462.715 829.962 466.042 830.333 467 829.964C467.392 829.813 467.6 829.376 467.899 829.082Z"
     id="path44" />
  <path
     fill="#55EC97"
     d="M278.819 746.773C269.999 740.839 262.837 732.61 255.879 724.664C245.449 712.752 235.357 700.398 227.229 686.764C221.523 677.19 216.294 666.178 212.811 655.573C210.354 648.09 209.008 641.305 212.894 634C215.683 628.757 220.685 624.894 226.334 623.174C228.153 622.62 230.491 621.993 232.214 622.886L232.522 634.738L233.899 640.499L236.427 650.823C232.576 652.394 226.231 654.037 224.493 658.25C223.988 659.474 223.998 660.4 224.599 661.578C225.294 662.939 226.591 663.624 228 664.042C231.841 663.759 236.223 660.769 239.325 658.592L241.322 663.449L245.828 673.377C254.648 690.434 267.625 705.036 281.954 717.675C282.634 719.115 283.307 720.463 284.19 721.791C286.613 725.434 286.896 730.122 285.944 734.306C284.831 739.2 282.675 743.483 278.819 746.773Z"
     id="path45" />
  <path
     fill="#E9F7FA"
     d="M233.899 640.499C233.607 642.081 233.292 643.315 232.555 644.75C230.701 646.166 228.479 647.135 226.087 646.969C224.665 646.869 223.266 645.995 222.37 644.91C221.055 643.318 220.722 641.272 221.006 639.25C221.26 637.446 222.437 635.61 223.994 634.663C226.535 633.117 229.836 634.1 232.522 634.738L233.899 640.499Z"
     id="path46" />
  <path
     fill="#E9F7FA"
     d="M241.322 663.449L245.828 673.377C243.811 675.189 240.856 677.4 238.028 677.489C236.609 677.534 235.328 677.152 234.283 676.172C232.477 674.481 231.365 671.496 231.367 669.055C231.367 667.672 231.587 666.762 232.609 665.764C235.027 663.399 238.178 663.519 241.322 663.449Z"
     id="path47" />
  <path
     fill="#55EC97"
     d="M614.083 207.991L622.306 192.951C630.689 179.271 642.931 165.075 659.301 161.297C674.421 157.807 686.111 162.593 696.965 173.047C699.145 175.147 701.321 178.659 703.895 180.134L704.677 180.557C713.909 206.305 700.712 236.579 691.011 260.491L680.864 251.245C679.83 250.331 676.668 248.082 676.546 246.843C684.181 231.97 691.506 210.693 686.005 194.032C683.994 187.941 679.397 181.666 673.507 178.873C668.425 176.463 661.899 176.461 656.675 178.443C645.125 182.824 635.32 193.664 628.914 203.928C627.151 206.751 625.861 210.645 623.773 213.098C620.678 211.44 617.363 209.164 614.083 207.991Z"
     id="path48" />
  <path
     fill="#E9F7FA"
     d="M558.638 230.943C561 227.213 563.709 223.016 564.393 218.563C564.788 215.988 564.57 213.1 564.457 210.498C605.499 219.837 647.576 238.744 676.97 269.709C677.006 273.656 676.92 277.095 675.232 280.771C673.799 283.895 671.269 286.331 668.031 287.51C667.381 287.747 666.705 287.949 666.025 288.079C656.758 289.85 648.585 278.363 642.04 272.925C623.554 257.564 602.097 246.388 579.664 237.973C572.789 235.394 565.329 233.877 558.638 230.943Z"
     id="path49" />
  <path
     fill="#55EC97"
     d="M386.158 567.319L420.455 576.758L362.239 576.11C351.545 576.033 342.443 577.765 334.64 585.657C325.479 594.923 326.096 606.026 326.13 617.99L326.209 638.499C319.682 626.859 313.196 616.312 309.181 603.403C301.57 578.935 304.395 552.795 316.15 530.186L320.621 534.095C334.9 544.417 349.575 552.9 365.886 559.653L379.463 564.726C381.609 565.502 384.204 566.162 386.158 567.319Z"
     id="path50" />
  <path
     fill="#50AC07"
     d="M225.801 712.891C238.215 728.518 269.109 767.177 289.106 769.425C294.732 770.058 300.933 768.896 305.436 765.286C313.024 759.205 315.563 748.352 317.671 739.334L325.901 744.137L325.829 774.755C325.822 780.983 325.01 788.57 326.822 794.521L254.778 782.513C238.852 778.441 203.248 767.928 194.75 752.952C192.54 749.058 192.368 744.134 193.671 739.888L195.349 734.589C204.636 725.903 215.494 720.094 225.801 712.891Z"
     id="path51" />
  <path
     fill="#55EC97"
     d="M253.709 601.986C255.419 595.215 257.337 588.666 260.307 582.329C268.257 565.369 281.426 551.175 295.906 539.559C295.458 542.324 294.304 545.057 293.522 547.75C292.263 552.081 291.285 556.576 290.684 561.047C286.668 590.926 296.885 621.264 314.278 645.41C316.586 648.614 318.984 651.72 321.58 654.696C322.673 655.949 325.064 658.018 325.744 659.403C326.383 660.703 325.937 666.715 325.946 668.458C326.013 681.017 326.487 693.843 325.571 706.358L324.165 705.453C293.742 684.623 267.812 655.596 257.328 619.636C255.657 613.905 254.837 607.843 253.709 601.986Z"
     id="path52" />
  <path
     fill="#E9F7FA"
     d="M278.266 565.302C280.167 565.559 280.992 565.673 282.448 567.052C283.396 567.948 284.077 569.177 283.981 570.5C283.808 572.896 282.392 575.692 281.36 577.846C279.061 582.647 277.099 587.117 272.993 590.636C271.365 590.583 270.164 590.496 268.921 589.268C267.598 587.961 267.006 586.175 267.122 584.328C267.589 576.912 272.796 569.892 278.266 565.302Z"
     id="path53" />
  <path
     fill="#55EC97"
     d="M699.452 705.291L699.396 670.614C699.392 668.205 698.713 663.05 699.381 660.904C699.678 659.949 700.93 658.588 701.538 657.795L706.829 650.839C724.491 626.594 734.741 596.08 733.986 566C733.742 556.262 732.215 546.622 730.763 537.008C748.259 555.461 763.644 576.001 772.567 600.03C769.236 611.967 765.974 623.7 761.216 635.184C753.486 653.844 741.659 671.731 727.542 686.184C721.983 691.876 715.737 697.99 708.75 701.901C705.806 703.55 702.714 704.508 699.452 705.291Z"
     id="path54" />
  <path
     fill="#50AC07"
     d="M804.899 713.079C821.838 721.182 838.317 732.36 851.868 745.371C842.898 754.376 832.746 760.272 821.506 766.069C788.627 783.026 752.574 792.327 716 796.957L702.531 798.659C700.704 798.887 698.886 799.371 697.044 799.365L694.459 799.281C695.694 797.56 696.392 795.281 697.047 793.276C699.708 785.138 699.446 776.752 699.476 768.306L699.498 745.415L708.668 740.468C707.589 744.187 706.889 748.142 707.746 752.012C709.021 757.767 713.236 762.802 718.166 765.854C723.77 769.324 731.35 770.684 737.818 769.191L738.5 769.024C764.173 762.97 789.873 734.13 804.899 713.079Z"
     id="path55" />
  <path
     fill="#4C5471"
     d="M683.515 599.834C684.365 601.142 684.394 602.73 684.424 604.25L684.116 646.333L684.086 716.283L684.145 758.841C684.152 766.31 685.148 775.411 683.467 782.628C681.924 789.254 678.569 796.839 672.478 800.485C671.165 801.271 670.725 801.472 669.198 801.478L434.38 801.753L383.676 801.917L366.372 801.973C362.24 801.984 357.889 802.225 353.885 801.069C349.877 799.911 346.583 796.898 344.613 793.282C343.331 790.929 342.639 788.457 342.452 785.795C341.633 774.181 342.029 762.254 342.011 750.604L341.974 691.584L341.979 660.377C341.981 655.246 341.399 649.218 342.329 644.219C344.038 647.104 345.121 650.462 346.556 653.5L354.295 668.557C366.692 691.339 383.663 712.072 403.239 729.071C441.474 762.274 489.631 780.02 539.91 782.875L560.493 783.016L597.183 783.046L639.368 783.177C648.169 783.223 657.1 783.577 665.878 782.959C668.67 781.29 671.441 778.932 672.257 775.632C673.071 772.344 672.519 767.644 672.527 764.22L672.547 737.423L672.51 628.583L672.523 608.524C672.524 606.18 672.072 602.873 672.752 600.707L672.961 600.092L683.515 599.834Z"
     id="path56" />
  <path
     fill="#24B96B"
     d="M730.807 467.404L730.601 468.745C727.894 482.514 719.468 494.451 710.539 504.949C702.201 514.75 693.191 523.58 682.567 530.913C662.164 544.996 638.157 552.692 614.277 558.51C580.409 566.76 544.628 571.104 509.75 571.003C486.475 570.935 463.08 568.918 440.195 564.631C423.021 561.414 406.002 556.808 389.5 551.072C354.911 539.05 321.985 521.719 300.932 490.633C296.509 484.102 291.434 475.186 289.53 467.458C288.222 462.149 289.096 455 289.056 449.415C288.884 425.611 288.473 402.908 293.068 379.367C300.948 338.995 319.165 301.783 347.083 271.495C352.853 265.235 359.227 258.274 366.304 253.509L366.152 253.985C363.984 260.6 360.62 266.814 358.409 273.5C352.915 290.115 350.404 308.054 352.75 325.487C353.303 329.596 353.844 334.14 355.61 337.927L355.862 338.41C338.596 350.336 327.549 366.089 323.761 386.876C320.175 406.562 323.657 427.904 335.214 444.46L340.887 451.281C345.212 455.468 349.451 459.593 354.608 462.772C362.731 467.782 371.984 469.722 381.224 471.439C381.79 479.311 380.55 486.932 375.176 493.048C371.24 497.526 365.798 500.414 360 501.62L359.329 501.765C356.268 502.385 352.751 502.453 349.626 502.347C353.108 506.199 358.984 508.537 363.577 510.817C385.463 521.681 408.354 529.862 432.135 535.424C472.965 544.973 513.847 545.918 555.428 541.896C596.657 537.908 638.923 528.744 675.292 508.198C689.814 499.995 703.461 489.498 716.594 479.225C721.257 475.578 725.302 470.74 730.358 467.667L730.807 467.404Z"
     id="path57" />
  <path
     fill="#F1A8AA"
     d="M340.887 451.281C345.212 455.468 349.451 459.593 354.608 462.772C362.731 467.782 371.984 469.722 381.224 471.439C381.79 479.311 380.55 486.932 375.176 493.048C371.24 497.526 365.798 500.414 360 501.62L359.329 501.765C356.268 502.385 352.751 502.453 349.626 502.347C340.769 499.023 333.456 494.815 329.155 485.9C326.051 479.466 325.411 471.791 327.949 465.078C330.338 458.754 334.747 453.982 340.887 451.281Z"
     id="path58" />
  <path
     fill="#6EDD05"
     d="M195.349 734.589L193.671 739.888C192.368 744.134 192.54 749.058 194.75 752.952C203.248 767.928 238.852 778.441 254.778 782.513L326.822 794.521L329.65 801.562C323.679 801.574 310.211 800.041 305.855 804.087C303.78 806.013 302.701 808.673 301.704 811.253C305.269 821.588 310.536 831.353 315.654 840.993C317.706 844.858 319.824 850.173 323.25 852.924C325.187 853.517 327.022 853.98 329.061 854.013L423.671 854.097L610.613 854.021L674.48 854.057L689.032 854.244C692.185 854.333 695.925 854.754 698.981 853.836C700.29 853.443 701.511 852.46 702.304 851.367C705.402 847.096 707.456 841.365 709.861 836.608C714.258 827.908 719.234 819.437 722.958 810.424C722.949 809.777 722.968 809.723 722.841 808.989C722.427 806.609 720.741 803.392 718.398 802.424C716.691 801.718 714.113 802.022 712.259 802.012L698.502 801.997C697.028 802 694.972 802.342 693.784 801.5L694.459 799.281L697.044 799.365C698.886 799.371 700.704 798.887 702.531 798.659L716 796.957C752.574 792.327 788.627 783.026 821.506 766.069C832.746 760.272 842.898 754.376 851.868 745.371L861.562 755.653L861.237 765.75C858.237 791.407 845.912 813.524 827.562 831.54C806.371 852.346 780.907 868.204 754.168 880.887C676.019 917.957 586.828 928.823 501.173 928.077C478.866 927.883 456.619 925.93 434.497 923.159C378.811 916.185 324.769 902.879 274.472 877.506C250.238 865.281 227.171 850.375 208.117 830.888C188.152 810.47 174.061 784.706 174.326 755.602L195.349 734.589Z"
     id="path59" />
  <path
     fill="#50AC07"
     d="M722.958 810.424C730.727 815.577 741.515 819.852 743.769 830.009C744.74 834.385 743.637 838.864 741.213 842.55C736.313 850 727.734 854.58 720 858.526C694.131 871.726 665.303 878.506 636.916 883.78C609.475 888.877 581.054 892.501 553.156 893.909L513.374 894.45C483.198 894.388 453.332 892.752 423.412 888.815C396.343 885.253 369.187 880.114 343.316 871.209C328.354 866.059 313.092 860.801 299.95 851.75C293.64 847.405 287.034 841.371 285.696 833.42C285.006 829.315 287.351 824.329 289.753 821.106C293.029 816.709 297.187 814.18 301.704 811.253C305.269 821.588 310.536 831.353 315.654 840.993C317.706 844.858 319.824 850.173 323.25 852.924C325.187 853.517 327.022 853.98 329.061 854.013L423.671 854.097L610.613 854.021L674.48 854.057L689.032 854.244C692.185 854.333 695.925 854.754 698.981 853.836C700.29 853.443 701.511 852.46 702.304 851.367C705.402 847.096 707.456 841.365 709.861 836.608C714.258 827.908 719.234 819.437 722.958 810.424Z"
     id="path60" />
  <path
     fill="#7A90A5"
     d="M344.219 599.796L672.625 599.963L672.961 600.092L672.752 600.707C672.072 602.873 672.524 606.18 672.523 608.524L672.51 628.583L672.547 737.423L672.527 764.22C672.519 767.644 673.071 772.344 672.257 775.632C671.441 778.932 668.67 781.29 665.878 782.959C657.1 783.577 648.169 783.223 639.368 783.177L597.183 783.046L560.493 783.016L539.91 782.875C489.631 780.02 441.474 762.274 403.239 729.071C383.663 712.072 366.692 691.339 354.295 668.557L346.556 653.5C345.121 650.462 344.038 647.104 342.329 644.219C341.52 637.389 341.963 630.016 341.942 623.114C341.925 617.483 341.377 611.271 342.337 605.757L342.482 605C342.841 603.053 343.269 601.543 344.219 599.796Z"
     id="path61" />
  <path
     fill="#049488"
     d="M521.047 644.589C520.825 642.491 520.625 639.359 521.457 637.398C522.602 634.7 525.612 632.885 528.21 631.834C533.458 629.712 538.749 630.94 543.664 633.204C548.759 635.55 552.618 638.193 554.648 643.626C554.356 647.732 553.854 650.627 550.547 653.455C548.241 655.427 544.489 656.615 541.45 656.216C536.012 655.503 525.485 651.024 522.275 646.556L521.047 644.589Z"
     id="path62" />
  <path
     fill="#049488"
     d="M520.241 750.288C523.669 745.137 527.845 743.048 533.168 740.313C535.319 739.207 537.598 737.776 539.967 737.245C543.351 736.488 547.249 736.952 550.163 738.875C553.671 741.19 554.617 744.053 555.413 747.999C554.444 752.788 552.03 755.285 548.078 757.893C542.377 761.655 536.477 764.302 529.528 762.908C526.349 762.271 523.736 760.323 521.947 757.637C520.374 755.275 520.211 753.065 520.241 750.288Z"
     id="path63" />
  <path
     fill="#049488"
     d="M467.195 749.515C467.733 745.532 468.505 742.603 471.944 740.132C475.019 737.922 479.254 736.793 482.998 737.634C488.071 738.774 499.897 744.554 502.405 749.25C502.779 749.949 502.761 749.965 502.982 750.607C502.904 752.235 502.736 753.762 502.205 755.315C501.141 758.427 498.653 761.28 495.622 762.604C491.184 764.543 485.464 763.127 481.125 761.422C475.045 759.033 469.927 755.641 467.195 749.515Z"
     id="path64" />
  <path
     fill="#18F4C1"
     d="M468.781 641.659C473.524 636.099 480.491 631.547 488 630.959C491.971 630.648 495.614 631.002 498.679 633.82C501.44 636.359 502.454 639.804 502.44 643.468L502.411 644.529C508.564 643.836 514.873 644.364 521.047 644.589L522.275 646.556C525.485 651.024 536.012 655.503 541.45 656.216C544.489 656.615 548.241 655.427 550.547 653.455C553.854 650.627 554.356 647.732 554.648 643.626C557.206 644.778 560.952 646.693 562.393 649.191L562.344 649.691C562.208 651.257 562.423 651.989 562.743 653.5L562.817 654.298C562.904 655.099 563.05 655.35 563.526 655.976C570.494 659.879 574.04 668.676 576.154 676.118C577.166 679.679 577.679 684.001 576.224 687.503C576.875 688.968 577.477 690.349 578.323 691.709C579.541 693.663 579.323 702.924 578.515 705.236C578.297 705.86 577.863 706.393 577.464 706.907C578.87 714.567 575.004 724.587 570.714 731.022C568.572 734.235 565.904 735.909 562.399 737.297C560.373 740.237 558.513 746.657 555.413 747.999C554.617 744.053 553.671 741.19 550.163 738.875C547.249 736.952 543.351 736.488 539.967 737.245C537.598 737.776 535.319 739.207 533.168 740.313C527.845 743.048 523.669 745.137 520.241 750.288L502.982 750.607C502.761 749.965 502.779 749.949 502.405 749.25C499.897 744.554 488.071 738.774 482.998 737.634C479.254 736.793 475.019 737.922 471.944 740.132C468.505 742.603 467.733 745.532 467.195 749.515C466.381 749.279 465.715 748.946 465.044 748.432C461.764 745.917 460.127 741.866 459.646 737.883C455.861 736.296 453.253 733.874 451.22 730.309C447.04 722.983 443.141 712.416 445.385 704.081C445.411 698.633 444.745 691.831 446.29 686.625C444.882 678.3 449.444 668.607 453.642 661.655C453.575 659.503 453.876 657.718 454.661 655.701C456.865 650.044 463.398 644.162 468.781 641.659Z"
     id="path65" />
  <path
     fill="#049488"
     d="M468.781 641.659C473.524 636.099 480.491 631.547 488 630.959C491.971 630.648 495.614 631.002 498.679 633.82C501.44 636.359 502.454 639.804 502.44 643.468L502.411 644.529C498.885 649.397 495.257 651.062 490.004 653.651C487.288 654.989 484.692 656.382 481.656 656.811C478.261 657.292 474.901 656.245 472.284 654.048C470.686 652.706 469.483 650.962 468.444 649.172C468.04 646.315 468.059 644.486 468.781 641.659Z"
     id="path66" />
  <path
     fill="#049488"
     d="M509.363 677.162C512.148 676.97 515.276 677.383 517.75 678.719C521.594 680.797 524.121 684.446 525.346 688.567C526.398 692.107 526.159 696.512 524.3 699.75C521.591 704.466 517.579 706.284 512.579 707.736C509.308 707.945 505.98 707.651 503.167 705.858C499.317 703.405 496.553 699.388 495.7 694.891C495.005 691.227 496.013 687.179 498.108 684.125C500.972 679.951 504.545 678.141 509.363 677.162Z"
     id="path67" />
  <path
     fill="#049488"
     d="M576.224 687.503C575.436 688.572 574.641 689.735 573.649 690.624C571.627 692.436 569.031 693.278 566.343 693.168C563.315 693.043 561.142 692.192 559.124 689.885C556.671 687.081 555.271 683.347 553.837 679.949C551.905 675.371 549.366 671.24 550.071 666.037C550.551 662.49 552.63 659.505 555.5 657.446C557.972 655.672 560.624 655.519 563.526 655.976C570.494 659.879 574.04 668.676 576.154 676.118C577.166 679.679 577.679 684.001 576.224 687.503Z"
     id="path68" />
  <path
     fill="#049488"
     d="M562.399 737.297C558.228 736.926 555.009 735.61 552.333 732.181C550.565 729.915 549.672 727.247 550.06 724.375C550.495 721.151 552.036 717.943 553.355 715.002C555.561 710.086 557.682 704.699 562.383 701.599C564.797 700.008 568.016 699.784 570.75 700.518C574.099 701.418 575.902 704.024 577.464 706.907C578.87 714.567 575.004 724.587 570.714 731.022C568.572 734.235 565.904 735.909 562.399 737.297Z"
     id="path69" />
  <path
     fill="#049488"
     d="M465.431 656.326C468.657 657.692 471.258 659.485 472.596 662.861C475.314 669.717 470.489 678.86 467.528 685.091C466.028 688.249 463.743 691.609 460.334 692.869C457.763 693.819 454.646 693.992 452.142 692.739C449.5 691.417 447.829 689.048 446.29 686.625C444.882 678.3 449.444 668.607 453.642 661.655C457.454 657.81 460.154 656.598 465.431 656.326Z"
     id="path70" />
  <path
     fill="#049488"
     d="M445.385 704.081C448.903 701.466 452.046 699.522 456.648 700.14C460.064 700.6 462.786 702.462 464.775 705.25C466.486 707.648 467.409 710.54 468.497 713.25C470.43 718.061 473.181 723.048 472.168 728.394C471.566 731.572 469.494 734.549 466.738 736.25C464.468 737.651 462.218 737.764 459.646 737.883C455.861 736.296 453.253 733.874 451.22 730.309C447.04 722.983 443.141 712.416 445.385 704.081Z"
     id="path71" />
  <path
     fill="#55EC97"
     d="M475.04 217.377C476.419 217.365 477.683 217.296 478.754 216.349C481.422 213.99 483.813 209.515 486.079 206.652C493.916 196.751 503.909 187.571 515.387 182.109C518.729 180.519 527.903 175.756 531.25 176.951C531.789 178.862 531.111 181.013 530.52 182.852C527.891 191.033 522.483 198.526 517.406 205.378C515.497 207.955 512.598 211.041 511.388 214C510.891 215.217 510.818 216.289 511.415 217.5C511.971 218.627 512.895 219.099 514 219.501C518.891 218.814 524.009 214.895 528.45 212.706C535.116 213.701 543.63 213.375 550.396 212.914L549.231 216.238C547.615 220.982 543.961 224.289 540.001 227.185C537.286 229.17 524.372 235.118 524.029 237.5C523.99 237.767 524.538 238.857 524.603 238.971C526.668 242.573 536.665 243.051 540.5 243.499C542.596 243.744 544.229 243.643 545.847 245.149C546.931 247.577 546.515 249.773 545.567 252.203C544.147 255.841 541.622 258.782 537.958 260.283C529.84 263.61 520.35 261.924 512.117 259.997C510.809 259.691 507.985 258.613 506.75 258.732C505.482 258.854 504.688 260.301 504.082 261.25C505.123 265.813 509.916 270.203 513.807 272.619C521.073 277.128 531.82 278.099 540.054 276C547.944 273.989 554.304 268.698 558.311 261.688C561.695 255.768 563.02 248.45 560.984 241.836C560.344 239.758 556.532 233.864 557.367 232.395L558.638 230.943C565.329 233.877 572.789 235.394 579.664 237.973C602.097 246.388 623.554 257.564 642.04 272.925C648.585 278.363 656.758 289.85 666.025 288.079C666.705 287.949 667.381 287.747 668.031 287.51C671.269 286.331 673.799 283.895 675.232 280.771C676.92 277.095 677.006 273.656 676.97 269.709C683.795 276.006 689.473 282.892 695.06 290.268C719.22 322.162 732.947 362.247 734.549 402.185C735.176 417.833 734.715 433.146 733.418 448.749C732.922 454.715 732.626 461.69 730.807 467.404L730.358 467.667C725.302 470.74 721.257 475.578 716.594 479.225C703.461 489.498 689.814 499.995 675.292 508.198C638.923 528.744 596.657 537.908 555.428 541.896C513.847 545.918 472.965 544.973 432.135 535.424C408.354 529.862 385.463 521.681 363.577 510.817C358.984 508.537 353.108 506.199 349.626 502.347C352.751 502.453 356.268 502.385 359.329 501.765L360 501.62C365.798 500.414 371.24 497.526 375.176 493.048C380.55 486.932 381.79 479.311 381.224 471.439C371.984 469.722 362.731 467.782 354.608 462.772C349.451 459.593 345.212 455.468 340.887 451.281L335.214 444.46C323.657 427.904 320.175 406.562 323.761 386.876C327.549 366.089 338.596 350.336 355.862 338.41L355.61 337.927C353.844 334.14 353.303 329.596 352.75 325.487C350.404 308.054 352.915 290.115 358.409 273.5C360.62 266.814 363.984 260.6 366.152 253.985L366.304 253.509C368.628 251.196 371.615 249.369 374.303 247.497C378.852 244.329 383.534 240.975 388.43 238.379C391.663 238.901 396.689 236.257 399.725 235.141L412.883 230.907L450.961 221.876L465.12 219.319C468.392 218.774 471.909 218.495 475.04 217.377Z"
     id="path72" />
  <path
     fill="#F1A8AA"
     d="M678.995 451.956C682.268 451.943 685.849 451.761 689.07 452.364C695.258 453.521 702.529 456.88 706.083 462.281C708.68 466.227 709.015 470.627 707.944 475.117C706.257 482.183 701.043 488.354 694.875 492.075C687.931 496.264 680.141 497.273 672.238 496.571C665.672 495.987 658.966 493.857 654.615 488.578C651.265 484.513 650.431 479.676 651.104 474.585L651.794 470.633C662.418 466.072 670.71 459.93 678.995 451.956Z"
     id="path73" />
  <path
     fill="#0A1330"
     d="M551.457 449.509L553.75 449.55C556.93 449.996 560.037 452.184 561.879 454.75C562.794 456.025 563.425 457.921 563.116 459.5C562.846 460.88 562.358 461.31 561.25 462.081C558.455 462.321 557.119 461.203 555.042 459.471L554.499 459.011L547.205 463.203C547.9 469.797 548.248 476.142 547.147 482.732C545.446 492.904 539.367 503.959 530.804 509.877C523.116 515.19 513.433 517.698 504.193 515.909C494.856 514.101 488.71 508.129 483.543 500.556C476.466 488.789 475.703 477.468 474.133 464.25C473.892 462.215 472.996 461.852 471.5 460.585C469.389 462.011 468.517 462.503 466 462.509C464.437 461.425 464.287 461.402 463.633 459.5C464.551 456.719 467.195 452.696 470.048 451.564C476.181 449.129 477.139 456.636 481.717 458.401C485.435 459.833 489.835 460.094 493.75 460.648C512.102 463.248 530.285 462.291 547.256 454.493C548.334 452.572 549.261 451.225 551.007 449.851L551.457 449.509Z"
     id="path74" />
  <path
     fill="#C31B74"
     d="M487.81 491.017C484.895 483.069 483.534 475.195 483.122 466.751C501.472 471.082 519.714 470.308 537.86 465.67C539.198 474.333 538.829 483.366 535.173 491.457L534.107 489.941C530.439 485.233 524.982 482.267 519.05 481.557C507.619 480.19 496.801 484.125 487.81 491.017Z"
     id="path75" />
  <path
     fill="#F6599F"
     d="M487.81 491.017C496.801 484.125 507.619 480.19 519.05 481.557C524.982 482.267 530.439 485.233 534.107 489.941L535.173 491.457C532.328 496.92 528.731 501.481 523.25 504.521C517.951 507.46 510.087 509.025 504.156 507.088C496.288 504.519 491.318 498.156 487.81 491.017Z"
     id="path76" />
  <path
     fill="#0A1330"
     d="M355.862 338.41C369.744 330.214 387.031 327.255 402.778 331.208C419.642 335.442 434.852 347.149 443.637 362.108C453.757 379.339 456.382 400.081 451.224 419.38C446.25 437.989 434.348 454.266 417.559 463.945C406.44 470.355 393.942 472.708 381.224 471.439C371.984 469.722 362.731 467.782 354.608 462.772C349.451 459.593 345.212 455.468 340.887 451.281L335.214 444.46C323.657 427.904 320.175 406.562 323.761 386.876C327.549 366.089 338.596 350.336 355.862 338.41Z"
     id="path77" />
  <path
     fill="#E9F7FA"
     d="M382.841 337.658C396.071 336.182 409.164 340.419 420.037 347.798C433.633 357.026 443.428 373.519 446.348 389.547C449.466 406.667 445.041 425.086 435.209 439.302C425.837 452.852 412.599 461.393 396.429 464.351C382.297 466.098 370.056 464.259 358.283 455.874C344.311 445.923 334.768 430.917 331.986 413.984C328.953 395.523 332.601 377.201 343.598 362.005C353.201 348.736 366.683 340.258 382.841 337.658Z"
     id="path78" />
  <path
     fill="#0A1330"
     d="M384.791 351.685C388.806 351.355 393.167 351.248 397.106 352.183L398 352.404C401.483 353.223 404.492 354.423 407.755 355.898C403.165 357.399 399.312 357.891 395.339 361.072C390.608 364.86 387.724 370.54 387.096 376.538C386.422 382.972 388.637 389.103 392.663 394.072C396.284 398.539 401.737 401.508 407.5 401.922C412.974 402.315 419.104 400.01 423.104 396.267C429.16 390.598 430.344 382.98 430.525 375.084C434.398 382.352 437.113 389.689 438.184 397.892C440.073 412.366 436.801 427.524 427.862 439.182C420.348 447.955 411.685 454.289 399.959 455.883C387.592 457.566 374.489 453.057 364.711 445.544C353.919 437.251 346.02 424.04 344.294 410.497C342.512 396.51 345.098 381.096 353.899 369.734C362.122 359.117 371.519 353.36 384.791 351.685Z"
     id="path79" />
  <path
     fill="#E9F7FA"
     d="M381.049 392.048C382.613 391.946 384.44 391.718 385.957 392.168C388.349 392.879 390.311 394.84 391.352 397.063C392.627 399.784 392.59 402.198 391.624 405C390.628 407.889 388.911 409.359 386.229 410.681C384.345 410.872 382.3 410.898 380.459 410.383C378.13 409.732 376.054 407.554 374.97 405.452C374.082 403.729 374.225 400.602 374.791 398.76C375.884 395.208 377.84 393.743 381.049 392.048Z"
     id="path80" />
  <path
     fill="#0A1330"
     d="M651.794 470.633C648.01 471.689 644.157 472.832 640.25 473.321C624.549 475.288 609.003 470.965 596.649 461.023C580.976 448.411 569.586 428.653 567.567 408.5C565.589 388.748 570.87 368.948 583.503 353.5C594.301 340.296 609.219 331.689 626.294 330.135C643.265 328.59 660.149 333.637 673.207 344.668C687.929 357.106 697.062 376.17 698.557 395.314C700.231 416.746 692.782 435.785 678.995 451.956C670.71 459.93 662.418 466.072 651.794 470.633Z"
     id="path81" />
  <path
     fill="#E9F7FA"
     d="M626.914 338.194C639.406 336.452 654.061 341.563 664.145 348.709C678.39 358.803 687.511 374.656 690.438 391.702C693.143 407.457 689.366 426.262 679.994 439.413C669.984 453.459 655.924 463.054 638.901 465.843C624.925 467.341 611.712 463.502 600.5 454.966C586.9 444.612 577.715 427.597 575.529 410.75C573.269 393.337 576.876 374.746 587.747 360.645C597.446 348.064 611.193 340.15 626.914 338.194Z"
     id="path82" />
  <path
     fill="#0A1330"
     d="M622.253 351.181L622.719 351.105C631.822 349.99 643.507 352.254 650.922 357.864C647.894 357.014 644.966 355.88 641.777 355.929C637.047 356.002 632.711 358.874 629.574 362.25C625.296 366.852 623.289 372.766 623.537 379C623.799 385.581 626.262 391.575 631.274 395.98C634.667 398.963 639.137 400.816 643.705 400.356C649.15 399.807 653.846 397.029 657.29 392.812C662.497 386.439 662.698 379.147 661.866 371.372C665.632 374.934 668.871 382.97 670.435 387.901C675.109 402.641 674.266 417.655 667.108 431.347L663.906 436.079C656.755 445.877 646.391 452.184 634.407 453.977C622.397 455.775 608.431 452.395 598.674 445.139C588.1 437.276 582.218 425.365 580.384 412.517C578.292 397.862 581.721 381.109 590.841 369.217C599.017 358.557 609.059 352.853 622.253 351.181Z"
     id="path83" />
  <path
     fill="#E9F7FA"
     d="M616.705 397.558C618.409 397.502 620.107 397.636 621.719 398.25C623.945 399.098 626.037 401.362 626.957 403.527C627.869 405.674 627.881 409.098 626.911 411.25C625.387 414.629 622.794 416.068 619.505 417.359C617.96 417.306 616.352 417.256 614.879 416.738C612.135 415.774 610.046 413.569 609.017 410.876C608.194 408.721 608.08 405.387 609.173 403.307C610.877 400.061 613.372 398.74 616.705 397.558Z"
     id="path84" />
</svg>
